<mxfile host="app.diagrams.net" modified="2024-05-28T18:57:47.277Z" agent="Mozilla/5.0 (Windows NT 10.0; Win64; x64) AppleWebKit/537.36 (KHTML, like Gecko) Chrome/125.0.0.0 Safari/537.36" etag="q6NSapgOpGy09datpMZl" version="24.4.9" type="device">
  <diagram name="Página-1" id="lAc5INHiR6N3XNcORo2d">
    <mxGraphModel dx="880" dy="434" grid="1" gridSize="10" guides="1" tooltips="1" connect="1" arrows="1" fold="1" page="1" pageScale="1" pageWidth="827" pageHeight="1169" math="0" shadow="0">
      <root>
        <mxCell id="0" />
        <mxCell id="1" parent="0" />
        <mxCell id="TCdS5Vb86ZMpxuKmdT2v-1" value="Medico" style="swimlane;childLayout=stackLayout;horizontal=1;startSize=50;horizontalStack=0;rounded=1;fontSize=14;fontStyle=0;strokeWidth=2;resizeParent=0;resizeLast=1;shadow=0;dashed=0;align=center;arcSize=4;whiteSpace=wrap;html=1;" vertex="1" parent="1">
          <mxGeometry x="70" y="40" width="160" height="120" as="geometry" />
        </mxCell>
        <mxCell id="TCdS5Vb86ZMpxuKmdT2v-2" value="Idmedico: int&lt;div&gt;nome: varchar(40)&lt;/div&gt;&lt;div&gt;telefone: varchar(10)&lt;/div&gt;&lt;div&gt;email: varchar(45)&lt;/div&gt;" style="align=left;strokeColor=none;fillColor=none;spacingLeft=4;fontSize=12;verticalAlign=top;resizable=0;rotatable=0;part=1;html=1;" vertex="1" parent="TCdS5Vb86ZMpxuKmdT2v-1">
          <mxGeometry y="50" width="160" height="70" as="geometry" />
        </mxCell>
        <mxCell id="TCdS5Vb86ZMpxuKmdT2v-20" style="edgeStyle=orthogonalEdgeStyle;rounded=0;orthogonalLoop=1;jettySize=auto;html=1;exitX=1;exitY=0.25;exitDx=0;exitDy=0;entryX=0;entryY=0;entryDx=0;entryDy=0;" edge="1" parent="1" source="TCdS5Vb86ZMpxuKmdT2v-3" target="TCdS5Vb86ZMpxuKmdT2v-17">
          <mxGeometry relative="1" as="geometry">
            <Array as="points">
              <mxPoint x="290" y="220" />
              <mxPoint x="290" y="153" />
              <mxPoint x="300" y="153" />
              <mxPoint x="300" y="173" />
            </Array>
          </mxGeometry>
        </mxCell>
        <mxCell id="TCdS5Vb86ZMpxuKmdT2v-3" value="consulta" style="swimlane;childLayout=stackLayout;horizontal=1;startSize=50;horizontalStack=0;rounded=1;fontSize=14;fontStyle=0;strokeWidth=2;resizeParent=0;resizeLast=1;shadow=0;dashed=0;align=center;arcSize=4;whiteSpace=wrap;html=1;" vertex="1" parent="1">
          <mxGeometry x="70" y="190" width="160" height="120" as="geometry" />
        </mxCell>
        <mxCell id="TCdS5Vb86ZMpxuKmdT2v-4" value="Idconsulta: int&lt;div&gt;data: date&lt;/div&gt;&lt;div&gt;tipo: varchar(20)&lt;/div&gt;" style="align=left;strokeColor=none;fillColor=none;spacingLeft=4;fontSize=12;verticalAlign=top;resizable=0;rotatable=0;part=1;html=1;" vertex="1" parent="TCdS5Vb86ZMpxuKmdT2v-3">
          <mxGeometry y="50" width="160" height="70" as="geometry" />
        </mxCell>
        <mxCell id="TCdS5Vb86ZMpxuKmdT2v-5" style="edgeStyle=orthogonalEdgeStyle;rounded=0;orthogonalLoop=1;jettySize=auto;html=1;exitX=0.5;exitY=1;exitDx=0;exitDy=0;entryX=0.5;entryY=0;entryDx=0;entryDy=0;" edge="1" parent="1" source="TCdS5Vb86ZMpxuKmdT2v-2" target="TCdS5Vb86ZMpxuKmdT2v-3">
          <mxGeometry relative="1" as="geometry" />
        </mxCell>
        <mxCell id="TCdS5Vb86ZMpxuKmdT2v-6" value="1;1" style="text;html=1;align=center;verticalAlign=middle;resizable=0;points=[];autosize=1;strokeColor=none;fillColor=none;" vertex="1" parent="1">
          <mxGeometry x="170" y="168" width="40" height="30" as="geometry" />
        </mxCell>
        <mxCell id="TCdS5Vb86ZMpxuKmdT2v-7" value="Paciente" style="swimlane;childLayout=stackLayout;horizontal=1;startSize=50;horizontalStack=0;rounded=1;fontSize=14;fontStyle=0;strokeWidth=2;resizeParent=0;resizeLast=1;shadow=0;dashed=0;align=center;arcSize=4;whiteSpace=wrap;html=1;" vertex="1" parent="1">
          <mxGeometry x="70" y="350" width="160" height="160" as="geometry" />
        </mxCell>
        <mxCell id="TCdS5Vb86ZMpxuKmdT2v-8" value="Idpaciente: int&lt;div&gt;nome: varchar(40)&lt;/div&gt;&lt;div&gt;telefone:&amp;nbsp; varchar(10)&lt;/div&gt;&lt;div&gt;endereço: varchar(120)&lt;/div&gt;&lt;div&gt;plano de saude: varchar(40)&lt;/div&gt;" style="align=left;strokeColor=none;fillColor=none;spacingLeft=4;fontSize=12;verticalAlign=top;resizable=0;rotatable=0;part=1;html=1;" vertex="1" parent="TCdS5Vb86ZMpxuKmdT2v-7">
          <mxGeometry y="50" width="160" height="110" as="geometry" />
        </mxCell>
        <mxCell id="TCdS5Vb86ZMpxuKmdT2v-10" value="1;1" style="text;html=1;align=center;verticalAlign=middle;resizable=0;points=[];autosize=1;strokeColor=none;fillColor=none;" vertex="1" parent="1">
          <mxGeometry x="160" y="320" width="40" height="30" as="geometry" />
        </mxCell>
        <mxCell id="TCdS5Vb86ZMpxuKmdT2v-16" value="exame" style="swimlane;childLayout=stackLayout;horizontal=1;startSize=50;horizontalStack=0;rounded=1;fontSize=14;fontStyle=0;strokeWidth=2;resizeParent=0;resizeLast=1;shadow=0;dashed=0;align=center;arcSize=4;whiteSpace=wrap;html=1;" vertex="1" parent="1">
          <mxGeometry x="320" y="123" width="160" height="137" as="geometry" />
        </mxCell>
        <mxCell id="TCdS5Vb86ZMpxuKmdT2v-17" value="idexame: int&lt;div&gt;nome: varchar(40)&lt;/div&gt;&lt;div&gt;observaçao: varchar(40)&lt;/div&gt;&lt;div&gt;resultado: varchar(40)&lt;/div&gt;&lt;div&gt;idconsulta:int(Fk)&lt;/div&gt;" style="align=left;strokeColor=none;fillColor=none;spacingLeft=4;fontSize=12;verticalAlign=top;resizable=0;rotatable=0;part=1;html=1;" vertex="1" parent="TCdS5Vb86ZMpxuKmdT2v-16">
          <mxGeometry y="50" width="160" height="87" as="geometry" />
        </mxCell>
        <mxCell id="TCdS5Vb86ZMpxuKmdT2v-18" value="medicamento" style="swimlane;childLayout=stackLayout;horizontal=1;startSize=50;horizontalStack=0;rounded=1;fontSize=14;fontStyle=0;strokeWidth=2;resizeParent=0;resizeLast=1;shadow=0;dashed=0;align=center;arcSize=4;whiteSpace=wrap;html=1;" vertex="1" parent="1">
          <mxGeometry x="320" y="275" width="170" height="175" as="geometry" />
        </mxCell>
        <mxCell id="TCdS5Vb86ZMpxuKmdT2v-19" value="idmedicamento:int&lt;div&gt;nome:varchar(40)&lt;/div&gt;&lt;div&gt;tipo:varchar(10)&lt;/div&gt;&lt;div&gt;dosagem:int&lt;/div&gt;&lt;div&gt;instruçoes de uso:varchar(40)&lt;/div&gt;&lt;div&gt;idconsulta:int(Fk)&lt;/div&gt;" style="align=left;strokeColor=none;fillColor=none;spacingLeft=4;fontSize=12;verticalAlign=top;resizable=0;rotatable=0;part=1;html=1;" vertex="1" parent="TCdS5Vb86ZMpxuKmdT2v-18">
          <mxGeometry y="50" width="170" height="125" as="geometry" />
        </mxCell>
        <mxCell id="TCdS5Vb86ZMpxuKmdT2v-23" style="edgeStyle=orthogonalEdgeStyle;rounded=0;orthogonalLoop=1;jettySize=auto;html=1;entryX=0.5;entryY=0;entryDx=0;entryDy=0;" edge="1" parent="1" source="TCdS5Vb86ZMpxuKmdT2v-4" target="TCdS5Vb86ZMpxuKmdT2v-7">
          <mxGeometry relative="1" as="geometry" />
        </mxCell>
        <mxCell id="TCdS5Vb86ZMpxuKmdT2v-24" value="" style="endArrow=classic;html=1;rounded=0;entryX=-0.019;entryY=0.317;entryDx=0;entryDy=0;entryPerimeter=0;" edge="1" parent="1" target="TCdS5Vb86ZMpxuKmdT2v-18">
          <mxGeometry width="50" height="50" relative="1" as="geometry">
            <mxPoint x="230" y="260" as="sourcePoint" />
            <mxPoint x="280" y="210" as="targetPoint" />
          </mxGeometry>
        </mxCell>
        <mxCell id="TCdS5Vb86ZMpxuKmdT2v-27" value="1;n" style="text;html=1;align=center;verticalAlign=middle;resizable=0;points=[];autosize=1;strokeColor=none;fillColor=none;" vertex="1" parent="1">
          <mxGeometry x="240" y="188" width="40" height="30" as="geometry" />
        </mxCell>
        <mxCell id="TCdS5Vb86ZMpxuKmdT2v-28" value="1;n" style="text;html=1;align=center;verticalAlign=middle;resizable=0;points=[];autosize=1;strokeColor=none;fillColor=none;" vertex="1" parent="1">
          <mxGeometry x="260" y="268" width="40" height="30" as="geometry" />
        </mxCell>
        <mxCell id="TCdS5Vb86ZMpxuKmdT2v-29" value="carro" style="swimlane;childLayout=stackLayout;horizontal=1;startSize=50;horizontalStack=0;rounded=1;fontSize=14;fontStyle=0;strokeWidth=2;resizeParent=0;resizeLast=1;shadow=0;dashed=0;align=center;arcSize=4;whiteSpace=wrap;html=1;" vertex="1" parent="1">
          <mxGeometry x="310" y="760" width="160" height="150" as="geometry" />
        </mxCell>
        <mxCell id="TCdS5Vb86ZMpxuKmdT2v-30" value="idcarro:int&lt;div&gt;idcliente:int(fk)&lt;/div&gt;&lt;div&gt;marca:varchar(40)&lt;/div&gt;&lt;div&gt;modelo:varchar(40)&lt;/div&gt;&lt;div&gt;cor:varchar(20)&lt;/div&gt;&lt;div&gt;&lt;br&gt;&lt;/div&gt;" style="align=left;strokeColor=none;fillColor=none;spacingLeft=4;fontSize=12;verticalAlign=top;resizable=0;rotatable=0;part=1;html=1;" vertex="1" parent="TCdS5Vb86ZMpxuKmdT2v-29">
          <mxGeometry y="50" width="160" height="100" as="geometry" />
        </mxCell>
        <mxCell id="TCdS5Vb86ZMpxuKmdT2v-31" value="acidente" style="swimlane;childLayout=stackLayout;horizontal=1;startSize=50;horizontalStack=0;rounded=1;fontSize=14;fontStyle=0;strokeWidth=2;resizeParent=0;resizeLast=1;shadow=0;dashed=0;align=center;arcSize=4;whiteSpace=wrap;html=1;" vertex="1" parent="1">
          <mxGeometry x="90" y="840" width="160" height="180" as="geometry" />
        </mxCell>
        <mxCell id="TCdS5Vb86ZMpxuKmdT2v-32" value="idacidente: int&lt;div&gt;idcliente:int(fk)&lt;/div&gt;&lt;div&gt;idcarro:int(fk)&lt;/div&gt;&lt;div&gt;data:date&lt;/div&gt;&lt;div&gt;local:varchar(40)&lt;/div&gt;&lt;div&gt;observaçao:varchar(45)&lt;/div&gt;" style="align=left;strokeColor=none;fillColor=none;spacingLeft=4;fontSize=12;verticalAlign=top;resizable=0;rotatable=0;part=1;html=1;" vertex="1" parent="TCdS5Vb86ZMpxuKmdT2v-31">
          <mxGeometry y="50" width="160" height="130" as="geometry" />
        </mxCell>
        <mxCell id="TCdS5Vb86ZMpxuKmdT2v-33" value="cliente" style="swimlane;childLayout=stackLayout;horizontal=1;startSize=50;horizontalStack=0;rounded=1;fontSize=14;fontStyle=0;strokeWidth=2;resizeParent=0;resizeLast=1;shadow=0;dashed=0;align=center;arcSize=4;whiteSpace=wrap;html=1;" vertex="1" parent="1">
          <mxGeometry x="90" y="680" width="160" height="120" as="geometry" />
        </mxCell>
        <mxCell id="TCdS5Vb86ZMpxuKmdT2v-34" value="idcliente: int&lt;div&gt;nome:varchar(40)&lt;/div&gt;&lt;div&gt;telefone;varchar(10)&lt;/div&gt;" style="align=left;strokeColor=none;fillColor=none;spacingLeft=4;fontSize=12;verticalAlign=top;resizable=0;rotatable=0;part=1;html=1;" vertex="1" parent="TCdS5Vb86ZMpxuKmdT2v-33">
          <mxGeometry y="50" width="160" height="70" as="geometry" />
        </mxCell>
        <mxCell id="TCdS5Vb86ZMpxuKmdT2v-35" value="" style="endArrow=classic;html=1;rounded=0;exitX=0;exitY=0.5;exitDx=0;exitDy=0;entryX=1;entryY=0.25;entryDx=0;entryDy=0;" edge="1" parent="1" source="TCdS5Vb86ZMpxuKmdT2v-30" target="TCdS5Vb86ZMpxuKmdT2v-32">
          <mxGeometry width="50" height="50" relative="1" as="geometry">
            <mxPoint x="320" y="980" as="sourcePoint" />
            <mxPoint x="280" y="990" as="targetPoint" />
          </mxGeometry>
        </mxCell>
        <mxCell id="TCdS5Vb86ZMpxuKmdT2v-36" value="" style="endArrow=classic;html=1;rounded=0;exitX=1;exitY=0.5;exitDx=0;exitDy=0;entryX=-0.037;entryY=0.1;entryDx=0;entryDy=0;entryPerimeter=0;" edge="1" parent="1" source="TCdS5Vb86ZMpxuKmdT2v-34" target="TCdS5Vb86ZMpxuKmdT2v-30">
          <mxGeometry width="50" height="50" relative="1" as="geometry">
            <mxPoint x="390" y="890" as="sourcePoint" />
            <mxPoint x="440" y="840" as="targetPoint" />
          </mxGeometry>
        </mxCell>
        <mxCell id="TCdS5Vb86ZMpxuKmdT2v-37" style="edgeStyle=orthogonalEdgeStyle;rounded=0;orthogonalLoop=1;jettySize=auto;html=1;entryX=0.5;entryY=0;entryDx=0;entryDy=0;" edge="1" parent="1" source="TCdS5Vb86ZMpxuKmdT2v-34" target="TCdS5Vb86ZMpxuKmdT2v-31">
          <mxGeometry relative="1" as="geometry" />
        </mxCell>
        <mxCell id="TCdS5Vb86ZMpxuKmdT2v-38" value="1;n" style="text;html=1;align=center;verticalAlign=middle;resizable=0;points=[];autosize=1;strokeColor=none;fillColor=none;" vertex="1" parent="1">
          <mxGeometry x="250" y="758" width="40" height="30" as="geometry" />
        </mxCell>
        <mxCell id="TCdS5Vb86ZMpxuKmdT2v-39" value="1;n" style="text;html=1;align=center;verticalAlign=middle;resizable=0;points=[];autosize=1;strokeColor=none;fillColor=none;" vertex="1" parent="1">
          <mxGeometry x="260" y="858" width="40" height="30" as="geometry" />
        </mxCell>
        <mxCell id="TCdS5Vb86ZMpxuKmdT2v-40" value="1;n" style="text;html=1;align=center;verticalAlign=middle;resizable=0;points=[];autosize=1;strokeColor=none;fillColor=none;" vertex="1" parent="1">
          <mxGeometry x="170" y="808" width="40" height="30" as="geometry" />
        </mxCell>
      </root>
    </mxGraphModel>
  </diagram>
</mxfile>
